PathFileType	4	(X/Y/Z)	D:\TRACE\v60_Jaco2_6-2-23\JustBodyDRS_Motion3_7-v60.trc
DataRate	CameraRate	NumFrames	NumMarkers	Units	OrigDataRate	OrigDataStartFrame	OrigNumFrames
100.00	100.00	      31	9	mm	100.00	1751	      7000
Frame#	Time	front left toe			Front right toe			aft left toe			aft right toe			Arm			FL body			FR body			AL Body			AR Body			
		X1	Y1	Z1	X2	Y2	Z2	X3	Y3	Z3	X4	Y4	Z4	X5	Y5	Z5	X6	Y6	Z6	X7	Y7	Z7	X8	Y8	Z8	X9	Y9	Z9	

1751	17.500	-183.99928	12.59279	-224.34523	193.78499	126.55093	-215.21045	-181.09082	128.25864	403.18649	185.58907	15.75382	400.19891	30.95354	1171.14502	-294.42813	-68.38358	526.56189	-393.81543	90.56659	525.97382	-391.12442	-76.73257	551.23700	550.77014	75.46133	541.52325	553.02930	
1752	17.510	-184.09839	12.54085	-224.19287	195.86783	135.54311	-214.81880	-180.97743	136.26810	402.55023	185.64249	15.59240	400.12549	31.07647	1170.95532	-294.19165	-68.29895	526.11749	-392.89676	90.04963	525.68652	-390.78030	-76.29279	551.25037	550.93457	75.60750	541.46686	553.17511	
1753	17.520	-184.16208	12.54952	-224.02054	196.07896	141.62346	-215.86914	-181.27129	143.21693	402.24893	185.68880	15.44448	400.09402	31.17990	1170.74768	-294.14737	-68.94147	526.04828	-392.73352	89.14449	525.74347	-390.48038	-75.82854	551.18414	551.30878	76.21684	541.51947	553.33447	
1754	17.530	-184.16808	12.62179	-223.86487	197.18668	146.96996	-215.98618	-182.35722	148.20276	401.66629	185.76181	15.32284	400.04480	31.07563	1170.47058	-294.16238	-69.46278	526.17450	-392.42136	88.81519	525.69171	-390.15250	-74.90877	551.25360	552.08923	77.25087	541.81415	553.83539	
1755	17.540	-184.11024	12.68745	-223.81757	197.11522	147.89859	-216.01866	-183.31013	150.19810	402.01529	185.86464	15.22367	400.03195	30.73297	1170.32678	-293.96548	-69.80230	526.06390	-391.91757	88.32094	525.68060	-389.65164	-74.29510	551.49969	552.38672	77.85017	542.15259	554.09192	
1756	17.550	-184.12871	12.67175	-223.70203	197.06355	146.66478	-215.83200	-183.70605	149.51424	402.99677	185.85799	15.18480	400.13303	30.12305	1170.51172	-293.69489	-70.03591	526.01904	-391.34698	88.84518	525.47314	-389.56281	-73.75874	551.65839	552.79309	78.30088	542.28650	554.41382	
1757	17.560	-184.17532	12.59404	-223.62572	196.65363	142.94554	-214.78716	-183.73615	147.20836	403.94904	185.92064	15.07304	400.06177	29.86542	1170.65540	-293.25900	-70.39206	526.02075	-390.79709	88.56010	525.37720	-389.13556	-72.83459	551.96967	553.45953	78.68887	542.26233	554.82916	
1758	17.570	-184.16937	12.58810	-223.46117	195.97203	138.24289	-214.24704	-183.37126	143.63925	405.21576	185.96664	15.03283	400.07971	29.58951	1170.96265	-292.89148	-70.91587	526.06396	-390.42783	87.48261	525.52466	-388.84790	-72.28190	551.91309	553.91315	79.34423	542.16876	555.19775	
1759	17.580	-184.07684	12.52684	-223.38547	194.23225	132.44881	-214.33037	-183.13228	139.49004	406.24426	186.08083	15.01884	400.12613	29.79696	1170.97668	-292.36972	-70.93362	526.21326	-389.81628	87.09106	525.56519	-388.48492	-71.76844	551.82745	554.33789	80.00802	542.09918	555.56610	
1760	17.590	-184.08057	12.62020	-223.35515	195.15509	127.92986	-213.78810	-182.80159	134.35876	407.19281	186.35036	14.91940	400.20187	30.38631	1170.60364	-291.78201	-71.26378	526.38806	-389.42816	86.91189	525.45087	-388.04733	-70.66508	551.76636	555.10840	80.62684	541.97034	555.85614	
1761	17.600	-184.00262	12.58833	-223.31683	194.23717	122.13838	-214.48595	-182.55473	128.07620	407.55270	186.60899	14.82735	400.25262	30.80556	1170.38977	-291.25601	-71.62506	526.42261	-388.81760	86.67673	525.48663	-387.53900	-70.15664	551.50989	555.13672	81.11651	541.91156	556.26605	
1762	17.610	-183.98277	12.45238	-223.15158	193.27277	115.14584	-215.55569	-182.91039	121.17494	407.73434	186.74062	14.72605	400.27783	31.16505	1170.36743	-290.64130	-72.04258	526.26807	-388.39636	86.91286	525.02698	-387.63428	-69.89493	551.25568	555.47839	82.17270	541.61615	556.21826	
1763	17.620	-183.93138	12.36153	-223.12285	192.73819	108.49851	-215.96695	-183.39085	114.06351	408.19067	187.17659	14.90184	400.33237	31.72739	1170.29517	-289.91687	-72.21065	525.95667	-387.89221	85.59682	525.07495	-387.09753	-68.70238	550.99945	556.29907	82.37417	541.12665	556.56793	
1764	17.630	-183.45581	11.88391	-223.29402	193.23260	101.07396	-216.02191	-183.29103	106.26923	408.39975	187.36620	14.89208	400.29626	31.66389	1170.26062	-289.44400	-72.54740	525.84814	-387.33734	85.38766	524.94867	-386.90121	-68.33960	550.83887	556.63776	82.91634	540.84009	556.89087	
1765	17.640	-183.83760	12.30882	-223.02808	191.56395	92.31406	-216.86317	-183.73628	98.88277	408.49356	187.55060	14.84920	400.33511	31.32931	1170.27649	-289.24380	-72.89359	525.98590	-386.86908	86.13587	524.62769	-386.77194	-67.89422	550.90442	557.08862	83.37106	540.92120	557.36578	
1766	17.650	-183.81570	12.35508	-222.96426	190.54306	83.90823	-216.96884	-183.63852	90.84933	408.61835	187.60001	14.80560	400.34164	31.28757	1170.19312	-288.95422	-73.12755	526.09357	-386.55771	85.98151	524.65887	-386.53506	-66.94706	550.85474	557.68042	84.50432	540.88763	557.68970	
1767	17.660	-183.81337	12.34696	-222.87094	189.68489	75.43500	-217.10085	-183.53500	82.33747	408.99814	187.53571	14.62352	400.31494	30.92124	1170.21338	-288.62485	-73.34508	526.19873	-386.27966	85.03542	524.79443	-386.08978	-66.61304	550.78491	558.01270	84.58023	540.75745	557.98499	
1768	17.670	-183.82080	12.27108	-222.81187	189.29535	66.87196	-216.21318	-183.98364	75.00968	408.88824	187.54814	14.58764	400.32935	30.87114	1170.21912	-288.37778	-73.62333	526.09650	-386.09259	84.62870	524.90723	-385.61411	-66.42621	550.69653	558.29663	85.19643	540.68445	558.16534	
1769	17.680	-183.35388	11.84082	-222.94347	189.93689	58.90843	-215.57147	-184.17032	67.26569	409.09763	187.65666	14.61274	400.29102	30.87797	1170.23120	-288.14224	-73.79128	526.03015	-385.65735	84.28724	524.75665	-385.37662	-65.89432	550.77625	558.58771	85.58654	540.67426	558.40314	
1770	17.690	-183.74562	12.20096	-222.72531	190.30740	51.17443	-214.99023	-184.10909	59.34179	409.51959	187.83612	14.62632	400.29926	30.89965	1170.18298	-287.93069	-74.03469	526.01007	-385.26846	84.18572	524.69360	-385.56680	-65.40660	550.80829	558.64642	85.85049	540.65143	558.55469	
1771	17.700	-183.73904	12.21593	-222.71678	190.65439	44.12905	-214.73924	-183.97926	51.51143	409.70795	187.87779	14.61780	400.25909	30.95699	1170.06555	-287.94623	-74.19855	525.98083	-385.09125	83.98434	524.64813	-385.33670	-65.03757	550.74188	558.90027	86.29713	540.73627	558.61072	
1772	17.710	-183.71986	12.21869	-222.69925	191.08386	37.71309	-214.29044	-183.88228	44.95541	410.06702	187.88048	14.53636	400.18927	30.88530	1169.97070	-287.97046	-74.48962	526.06158	-384.98111	83.70755	524.81097	-385.17233	-64.76217	550.67261	559.05676	86.90981	540.85522	558.67859	
1773	17.720	-183.29176	11.81048	-222.87653	190.92398	31.21205	-214.31297	-184.22086	38.45622	410.22153	187.74411	14.54860	400.20209	30.89440	1169.87329	-287.89038	-74.69984	526.08008	-384.90579	83.70255	524.70874	-385.29205	-64.63337	550.72821	559.20337	87.09737	540.90607	558.72504	
1774	17.730	-183.26772	11.71674	-222.88493	191.13138	25.14190	-214.05719	-183.66974	31.54510	410.07193	187.84000	14.50635	400.12036	30.49129	1170.06067	-287.91479	-74.83359	526.04919	-384.87820	83.33746	524.87054	-385.14050	-64.23724	550.85864	559.16986	86.84158	540.88464	558.65735	
1775	17.740	-183.34430	11.69348	-222.88795	191.96344	18.35713	-213.94650	-183.97563	24.97893	409.72305	187.83694	14.63881	400.14154	29.93406	1170.19592	-287.93292	-75.04430	525.98889	-384.90295	83.31711	524.67963	-385.37741	-63.92279	551.12390	559.10052	87.05476	540.84369	558.23389	
1776	17.750	-183.26920	11.67364	-222.92862	191.99310	17.10473	-216.43599	-184.55844	20.04526	408.52957	187.94585	14.75535	400.13531	29.55923	1170.19556	-287.99863	-75.34723	526.03345	-384.94998	82.89455	524.93585	-385.32834	-63.49345	551.19489	559.00159	87.28385	541.16290	558.47357	
1777	17.760	-183.11942	11.69638	-222.94754	192.38498	14.69239	-216.01561	-185.44647	18.71207	408.79620	187.88538	14.88234	400.14096	28.78053	1170.29309	-288.30972	-75.51934	526.23102	-385.06580	82.66180	525.32861	-385.72287	-63.28971	551.58881	559.19440	87.38817	541.72229	558.32581	
1778	17.770	-183.09454	11.82517	-222.84760	192.28430	14.16575	-216.29100	-185.53937	19.10756	408.54202	187.79025	15.20138	400.25671	28.19415	1170.56592	-288.56833	-76.04091	526.69464	-385.13504	82.87616	525.76361	-386.12042	-63.20599	553.68878	559.79449	87.69166	543.04523	558.17291	
1779	17.780	-183.32300	14.42624	-223.07207	191.68819	13.88805	-215.56070	-185.34433	18.84797	409.14102	187.22241	17.01809	399.70239	27.54817	1171.55713	-289.08905	-76.47184	527.09503	-385.14923	82.57404	526.15881	-386.24432	-63.15078	554.80420	559.71643	87.91583	544.34033	558.12463	
1780	17.790	-180.03023	17.39105	-220.95824	191.51155	13.73277	-215.95935	-185.33475	18.54823	408.59222	185.46074	20.04211	402.37253	27.23025	1172.64270	-289.97311	-76.83916	527.98212	-385.14456	81.79865	527.43298	-386.68671	-62.56321	555.35144	559.39307	88.48333	544.74860	557.74731	
1781	17.800	-176.62245	20.45634	-217.17384	191.53149	13.77223	-215.92310	-185.33525	18.57275	408.48456	181.77101	23.40607	405.87064	26.24824	1173.54126	-290.68622	-77.46814	528.98694	-385.74384	81.58233	527.94611	-386.90768	-62.26665	555.54688	559.22693	88.95198	544.93390	557.47882	
